<svg xmlns="http://www.w3.org/2000/svg" viewBox="0 0 512 512"><path d="M 30.248962,32.382899 C 86.954471,114.91302 143.66053,197.44277 200.36626,279.97276 142.24404,347.53223 84.122876,415.09262 26.000002,482.65153 c 19.411023,0 38.822045,0 58.233068,0 47.32949,-55.01751 94.6602,-110.03397 141.99017,-165.05107 37.80422,55.01704 75.60875,110.03389 113.41278,165.05107 48.78799,0 97.57599,0 146.36398,0 C 426.5332,396.10507 367.06565,309.55912 307.59857,223.01286 363.13347,158.4582 418.66713,93.902471 474.2028,29.348469 c -19.41102,0 -38.82204,0 -58.23306,0 C 371.22632,81.359928 326.48169,133.37033 281.7378,185.38139 246.00066,133.37039 210.26327,81.359576 174.5263,29.348469 c -48.78736,0 -97.574728,0 -146.362091,0 0.694918,1.011477 1.389835,2.022954 2.084753,3.03443 z M 148.31366,73.29285 c 85.45403,122.23546 170.90806,244.47093 256.36209,366.70639 -13.04957,0 -26.09913,0 -39.1487,0 C 280.0724,317.76378 194.61774,195.52831 109.16308,73.29285 c 13.05019,0 26.10038,0 39.15058,0 z"/></svg>